<?xml version="1.0" encoding="UTF-8" standalone="no"?>
<!-- Created with Inkscape (http://www.inkscape.org/) -->

<svg
   xmlns:dc="http://purl.org/dc/elements/1.1/"
   xmlns:cc="http://creativecommons.org/ns#"
   xmlns:rdf="http://www.w3.org/1999/02/22-rdf-syntax-ns#"
   xmlns:svg="http://www.w3.org/2000/svg"
   xmlns="http://www.w3.org/2000/svg"
   xmlns:sodipodi="http://sodipodi.sourceforge.net/DTD/sodipodi-0.dtd"
   xmlns:inkscape="http://www.inkscape.org/namespaces/inkscape"
   width="210mm"
   height="297mm"
   viewBox="0 0 210 297"
   version="1.1"
   id="svg8"
   sodipodi:docname="UrbanRootsLogo.svg"
   inkscape:version="0.92.2 (5c3e80d, 2017-08-06)">
  <defs
     id="defs2" />
  <sodipodi:namedview
     id="base"
     pagecolor="#ffffff"
     bordercolor="#666666"
     borderopacity="1.0"
     inkscape:pageopacity="0.0"
     inkscape:pageshadow="2"
     inkscape:zoom="0.0875"
     inkscape:cx="-2937.1049"
     inkscape:cy="2716.7798"
     inkscape:document-units="mm"
     inkscape:current-layer="layer1"
     showgrid="false"
     inkscape:window-width="1920"
     inkscape:window-height="1017"
     inkscape:window-x="1912"
     inkscape:window-y="-8"
     inkscape:window-maximized="1" />
  <metadata
     id="metadata5">
    <rdf:RDF>
      <cc:Work
         rdf:about="">
        <dc:format>image/svg+xml</dc:format>
        <dc:type
           rdf:resource="http://purl.org/dc/dcmitype/StillImage" />
      </cc:Work>
    </rdf:RDF>
  </metadata>
  <g
     inkscape:label="Layer 1"
     inkscape:groupmode="layer"
     id="layer1">
    <path
       style="fill:none;stroke:#000000;stroke-width:0.26458332px;stroke-linecap:butt;stroke-linejoin:miter;stroke-opacity:1"
       d="m 37.041666,98.562497 c 4.016903,-1.341024 7.953646,-2.744329 11.929873,-4.204983 l 1.582776,4.866442 -1.662736,0.728275 3.078139,9.719239 3.403792,9.58522 1.666025,4.52886 1.924749,3.88111 2.009212,3.15667 c 2.107359,2.89253 5.168485,5.30873 7.298453,4.68639 2.278583,-0.82725 2.903021,-3.0395 3.212796,-5.66965 -0.354852,-5.72155 -1.03451,-9.16012 -1.748138,-13.70164 -1.631885,-8.58022 -3.734572,-14.9033 -6.638208,-22.867559 l -0.566964,-1.535528 -2.527717,0.874069 -0.944938,-1.700892 7.559522,-3.307292 -0.755952,-1.511903 17.953868,-6.709079 0.850448,1.795388 3.685267,-1.606399 0.944941,3.685268 -3.212798,1.228422 0.596738,3.096006 c 1.081857,5.917835 1.396832,10.617458 1.910363,16.555309 l 0.327721,6.33455 0.228555,5.29281 c -0.947685,36.16764 -20.0651,40.36711 -36.524421,30.15879 -4.935248,-3.06091 -9.121068,-8.34978 -13.028209,-13.53039 -4.508804,-5.97837 -8.64649,-12.15735 -13.136487,-20.22032 l -1.762962,-3.26816 c 4.713903,-2.4858 8.973558,-4.2819 13.905448,-6.27573 z"
       id="path3723"
       inkscape:connector-curvature="0"
       sodipodi:nodetypes="cccccccccccccccccccccccccccsscccc" />
    <path
       style="fill:none;stroke:#000000;stroke-width:0.26458332px;stroke-linecap:butt;stroke-linejoin:miter;stroke-opacity:1"
       d="m 88.800299,122.473 c 6.218488,-13.95435 9.869665,-28.663786 13.096211,-43.498117 4.16625,-2.776207 8.04165,-6.452767 13.0628,-8.251947 2.37506,-0.765988 4.8205,-1.549433 7.92005,-1.502229 1.22693,0.01868 1.6138,-0.856897 3.94003,-1.33751 3.81981,-0.756763 7.88123,-0.932526 11.82668,-0.935443 15.87407,-0.309515 16.91483,16.261248 10.95805,25.323788 -10.49799,14.304048 -31.80796,18.318768 -47.44034,18.441578 4.6533,-4.27111 14.98505,-20.060831 10.28989,-27.729214 -2.50643,-2.969214 -3.023,-3.000531 -6.5481,-4.075861 -1.37128,-0.29396 -2.6473,-0.121008 -4.00904,0.06682"
       id="path3729"
       inkscape:connector-curvature="0"
       sodipodi:nodetypes="cccsccccccc" />
    <path
       style="fill:none;stroke:#000000;stroke-width:0.26458332px;stroke-linecap:butt;stroke-linejoin:miter;stroke-opacity:1"
       d="m 76.171816,148.66541 c 11.217861,-2.55357 12.930973,-14.15558 14.833458,-21.51519 1.071238,-5.18271 9.946906,-18.92919 20.577536,-13.47323 8.16254,6.21209 9.38247,14.97948 12.62954,20.42293 4.98909,8.36381 10.75604,12.5934 20.24683,14.2314 11.97281,0.87991 21.02241,-3.2805 29.26601,-8.21853 -9.54704,0.97502 -14.91775,-1.27622 -19.91158,-7.61716 -8.78553,-15.00699 -17.49465,-23.91775 -32.13916,-23.98745"
       id="path3733"
       inkscape:connector-curvature="0"
       sodipodi:nodetypes="cccscccc" />
    <path
       style="fill:none;stroke:#000000;stroke-width:0.26458332px;stroke-linecap:butt;stroke-linejoin:miter;stroke-opacity:1"
       d="m 103.75446,110.70498 c -2.46059,-0.25865 -4.547138,1.44527 -6.14211,2.6457 5.19136,-12.33579 6.6279,-21.800025 8.29322,-34.442773"
       id="path3735"
       inkscape:connector-curvature="0"
       sodipodi:nodetypes="ccc" />
    <path
       style="fill:none;stroke:#000000;stroke-width:0.26458332px;stroke-linecap:butt;stroke-linejoin:miter;stroke-opacity:1"
       d="m 102.16378,110.71312 c 17.84536,-2.56009 39.76085,-16.042476 40.23875,-30.954936 -0.71544,-9.676417 -11.94751,-10.798149 -19.67839,-10.536088"
       id="path3737"
       inkscape:connector-curvature="0"
       sodipodi:nodetypes="ccc" />
    <path
       style="fill:none;stroke:#000000;stroke-width:0.26458332px;stroke-linecap:butt;stroke-linejoin:miter;stroke-opacity:1"
       d="m 116.93042,109.44361 c 12.32388,0.95291 19.86352,11.14993 25.32378,18.10751 6.06285,7.62176 12.79068,12.47939 22.38383,13.69756"
       id="path3739"
       inkscape:connector-curvature="0"
       sodipodi:nodetypes="ccc" />
    <path
       style="fill:none;stroke:#000000;stroke-width:0.26458332px;stroke-linecap:butt;stroke-linejoin:miter;stroke-opacity:1"
       d="m 31.75,111.31919 4.441219,8.97694 5.291666,-2.55134 -3.96875,-8.88244 z"
       id="path3741"
       inkscape:connector-curvature="0" />
    <path
       style="fill:none;stroke:#000000;stroke-width:0.26458332px;stroke-linecap:butt;stroke-linejoin:miter;stroke-opacity:1"
       d="m 70.114582,105.17708 1.795386,8.78795 5.764137,-1.88988 -1.417408,-8.78795 z"
       id="path3743"
       inkscape:connector-curvature="0"
       sodipodi:nodetypes="ccccc" />
    <path
       style="fill:none;stroke:#000000;stroke-width:0.26458332px;stroke-linecap:butt;stroke-linejoin:miter;stroke-opacity:1"
       d="m 78.619047,88.924105 1.511904,8.409972 5.10268,-2.173364 -1.41741,-8.409971 z"
       id="path3745"
       inkscape:connector-curvature="0"
       sodipodi:nodetypes="ccccc" />
  </g>
</svg>
